<svg version="1.2" xmlns="http://www.w3.org/2000/svg" viewBox="0 0 1501 727" width="1501" height="727">
	<title>logo(2)</title>
	<style>
		tspan { white-space:pre } 
		.s0 { fill: #000000 } 
	</style>
	<path id="Path 0" fill-rule="evenodd" class="s0" d="m43.8 0.1c6.1-0.1 13.3 0.4 16 1 2.6 0.7 7.2 1.9 10.2 2.8 3 0.9 7.8 3.3 10.5 5.5 2.8 2.1 7.9 6.7 11.5 10.2 6.4 6.3 6.7 6.4 16.5 8.8 5.5 1.3 14.8 3.4 20.8 4.5 5.9 1.2 13.7 2.1 17.5 2.1 5.6 0.1 7-0.3 8.7-2.1 1.1-1.1 4-3.3 6.5-4.7 4.1-2.3 5.5-2.6 14.5-2.5 6.6 0.1 14.3 1 22.5 2.7 8.6 1.8 15.1 3.9 21 6.7 4.7 2.2 12.1 6.2 16.5 8.9 4.4 2.7 9.4 6.3 11.1 8.2 1.7 1.8 9.2 12.5 16.6 23.8 7.4 11.3 16.1 23.7 19.4 27.5 3.3 3.8 8.9 8.9 12.4 11.3 3.6 2.4 10.6 6.3 15.5 8.7 4.9 2.4 15.8 7.1 24 10.5 8.3 3.4 19.5 8.5 25 11.4 5.5 2.8 13.8 7.7 18.5 10.8 4.7 3.2 12.1 8.7 16.5 12.2 4.4 3.6 12.8 10.3 18.6 14.8 5.8 4.6 14.4 11 19 14.3 4.6 3.3 11 8.7 14.3 12 3.6 3.6 7 8.2 8.5 11.5 2.3 5.2 2.4 6.3 1.6 33.3l8 7.3c4.4 4 10.3 9.2 13.2 11.6 2.9 2.3 7.8 5.5 11 6.9 3.2 1.5 11.7 5.1 18.8 8.2 7.1 3 17.3 6.9 22.5 8.6 5.2 1.8 11.3 4.3 13.5 5.6 2.2 1.3 5.8 3.7 8 5.4 2.2 1.8 4.6 3.2 5.3 3.1 0.6 0 2.9 1.1 5 2.4 2 1.3 5.5 3 7.7 3.6 2.2 0.7 5.4 2.2 7 3.3 1.6 1.2 5 3.7 7.4 5.7 2.4 1.9 7.1 6 10.5 9 3.3 3.1 7.4 6.2 9 7 1.6 0.8 7.2 5.5 12.5 10.4 5.3 4.9 12 10.4 14.9 12.2 2.8 1.9 8 6 11.5 9.2 3.6 3.3 10.5 7.9 16.3 11 5.4 2.8 14.4 8.8 19.9 13.3 5.5 4.4 15.8 13.7 22.8 20.7 7.1 7 15.1 15.6 17.8 19.2 2.7 3.6 7 10.6 14.1 24.5l0.7 14.5c0.5 8 1.3 15.5 2 16.8 0.6 1.2 4.5 4.9 16.1 14.2l13.7 1c7.6 0.5 16.5 1.2 19.8 1.6 3.3 0.3 15.2 3 26.5 5.9 11.3 2.9 28.4 7.2 38 9.5 9.6 2.3 24.9 5.5 34 7.1 9.1 1.6 23.5 4 32 5.4 8.5 1.4 17.5 3.2 20 4.1 3.4 1.2 6.1 1.5 11 0.9 3.6-0.3 15.3-0.2 26 0.5 10.7 0.6 23.5 1.6 28.5 2.1 5 0.5 11.7 1.7 15 2.5 3.3 0.9 8.7 2.8 12 4.3 3.3 1.5 11.8 4.7 32 11.2l38 1.5c20.9 0.8 42.3 1.8 47.5 2.4 5.2 0.5 11.7 1.6 14.5 2.5 2.7 0.8 7.7 3.3 11 5.4 5.1 3.4 7.5 4.2 16 5.6 5.5 0.9 15.8 2.9 23 4.6 7.2 1.6 19.5 5.2 27.5 7.9 8 2.7 21.5 6.3 30 8 8.5 1.7 18.7 3.3 22.5 3.7 5.1 0.4 8.6 0.1 13-1.2 3.3-0.9 10.7-3.9 16.5-6.6 9.6-4.4 11.2-4.9 18-4.9 4.3 0 9.4 0.6 12 1.5 2.5 0.9 10.6 4.4 18 7.8 12.8 5.9 13.9 6.2 21 6.1 4.1 0 18.3-0.4 31.5-0.9 23.8-0.8 24.1-0.8 35 1.8 6 1.4 14.8 3.1 19.5 3.7 6.3 0.8 10 1.9 14.4 4.3 3.2 1.7 6.7 4.3 7.8 5.7 1.1 1.4 2.2 4.5 2.5 7 0.5 3.6 0.2 5.1-1.4 7.5-1.2 1.6-3.1 5.7-4.4 9-1.7 4.5-4.1 7.9-9.4 13.5-4.7 4.8-8.9 8.3-12.1 9.7-2.7 1.2-8.1 2.7-11.9 3.4-5.5 0.9-8.4 0.9-13.5-0.1-3.6-0.6-10.1-2.6-14.5-4.3-8-3-8.1-3.1-33.5-3.7-21.5-0.6-26.9-1-34.5-2.9-8.7-2.2-9.2-2.2-15-0.6-5.5 1.5-10 1.6-52 0.6-25.3-0.6-58.8-1.6-74.5-2.2-15.7-0.5-37.3-1.9-48-3-10.7-1.1-28-3.1-38.5-4.4-10.5-1.4-29.1-2.9-64-4.3l-17.3-5.6c-14.3-4.7-19.2-5.8-28.9-6.7-8.5-0.7-14.6-0.7-21.8 0-5.5 0.6-17.6 1.5-27 2-11.1 0.6-18.6 1.5-21.5 2.6-2.5 0.9-9.9 2.7-16.5 4-6.6 1.3-15.8 2.9-20.5 3.4-4.7 0.6-18.4 1.7-30.5 2.6-12.1 0.8-26 1.9-31 2.5-5 0.5-13.7 1.2-19.5 1.5-5.8 0.3-32.3 1-59 1.5-45.9 0.9-49.1 1.1-60.5 3.4-6.6 1.4-20.5 3.3-31 4.2-10.5 1-28.7 1.8-40.5 1.8-11.8 0-34.1-0.1-49.5-0.2-15.4-0.1-37-0.7-68-2.5l-16 3.1c-8.8 1.7-19.6 3.5-24 4.1-4.4 0.5-12.7 1.6-18.5 2.3-5.8 0.7-16.8 1.1-24.5 1-7.7-0.1-24.6-0.9-37.5-1.8-12.9-0.8-26.4-1.9-30-2.5-3.6-0.5-13.5-2.5-22-4.4-8.7-2-21-3.9-28-4.5-6.9-0.5-16.8-1-22-1-5.2 0-19.6-0.7-32-1.7-21.3-1.6-23-1.6-31.5 0.1-4.9 0.9-13.9 3.7-20 6.1-6.1 2.4-18 7.5-26.5 11.3-8.5 3.9-20.7 9.3-27 12.2-6.3 2.9-20.7 8.4-32 12.2-11.3 3.8-31.8 10.4-45.5 14.8-13.8 4.3-28.8 8.9-33.5 10.1-5.5 1.4-12.8 2.4-20.5 2.7-9.7 0.4-13 0.1-17.5-1.3-3-1-7.3-2.7-9.5-3.7-2.2-1.1-5.1-3-6.3-4.2-1.3-1.1-3.3-3.8-4.3-5.8-1.3-2.6-1.9-5.9-1.9-10.5 0-4.3 0.7-9 2-12.8 1.2-3.3 4.2-10 6.9-15 2.6-5 7.9-14.2 11.7-20.5 3.8-6.3 15.2-23.9 25.4-39 10.1-15.1 23.7-35.4 30.1-45 6.3-9.6 13.8-20 16.5-23.1 2.7-3.1 11.1-13.8 18.6-23.8 8.4-10.9 13.3-18.3 12.5-18.5-0.6-0.2-5.5-0.7-10.7-0.9-5.6-0.3-11.2-1.2-13.5-2.2-2.2-0.9-5.8-3.1-8-4.9-2.2-1.8-5.2-5.5-6.7-8.2-1.5-2.7-3.7-8.5-4.8-12.9-1.2-4.4-2.4-12.5-2.7-18-0.3-6-0.1-13.4 0.6-18.5 0.7-4.7 2.6-12.8 4.3-18 1.7-5.2 4.6-12.6 6.7-16.5 2-3.8 6.3-10.8 9.6-15.5 3.3-4.7 7.2-10.5 8.6-13 1.5-2.5 5.3-7 8.6-10 5-4.6 8.7-6.7 37.8-19.5l15 0.1c10.6 0 16.9 0.5 21.5 1.7 3.6 0.9 12.3 4.7 32.5 15.1l14 0.1c12 0.1 14.4 0.4 16.9 2.1 1.7 1.1 4.1 4.6 6 8.6 2.5 5.4 3.6 6.8 5.4 6.8 1.2 0 3.6 1.4 5.2 3 1.6 1.6 3.8 3 4.8 3 0.9 0 3.3 1 5.3 2.3 2 1.2 6.7 4.3 10.5 6.8 3.8 2.6 8.8 6.7 11.2 9.3 2.3 2.5 4.2 5.4 4.2 6.4 0 0.9-0.7 3.7-1.5 6.2-0.9 2.5-3.2 6.2-5.1 8.3-1.9 2-3.2 4-2.9 4.5 0.3 0.4 1.5-0.3 2.8-1.5 1.2-1.1 3.1-3.8 4.2-6 1.1-2.1 4-6.3 6.4-9.3 2.4-3 5.4-7.7 6.7-10.5 1.3-2.7 3.7-10.6 5.3-17.5 1.6-6.9 4-15.4 5.3-19 1.3-3.6 4.2-9.6 6.5-13.5 2.2-3.9 7.3-11.1 11.3-16 4-4.9 8-10.8 9-13 1.1-2.2 3.7-10.7 6-19 2.2-8.2 4-17.1 4-19.7 0-4.1-0.5-5.3-3.3-8-1.9-1.8-6.7-6.2-10.7-9.8-4.1-3.6-11-9.4-15.5-13-4.5-3.6-15.9-12.3-25.4-19.5-9.5-7.1-17.4-13.8-17.7-14.7-0.2-1-1.9-2.5-3.7-3.3-1.7-0.8-9.1-6.9-16.2-13.6-7.1-6.7-17.9-15.8-24-20.3-6.1-4.6-14.5-10.9-18.8-14.2-4.3-3.2-10.4-7.8-13.5-10-3.1-2.3-14.1-8.7-24.5-14.3-10.3-5.5-19.4-10.1-20.2-10.1-0.8 0-2.7-1.1-4.3-2.4-1.5-1.3-5.9-4-9.7-6.1-3.8-2-8.2-4.8-9.8-6.1-1.5-1.3-3.1-2.4-3.7-2.4-0.6 0-4.1-2.6-7.9-5.7-3.7-3.2-10.7-8-15.5-10.8-4.8-2.7-10.2-6-12.1-7.2-1.9-1.3-4-2.3-4.5-2.3-0.5 0-3.1-1.4-5.8-3.2-2.6-1.8-9-7.1-14.2-11.9-5.2-4.8-12.9-11.3-17-14.6-4.1-3.2-11-9.4-15.3-13.6-4.2-4.2-7.7-8.3-7.7-8.9 0-0.7-1.4-2.4-3.2-3.7-1.8-1.4-5.9-4.7-9.1-7.5-3.2-2.8-6.9-6.7-8.3-8.6-1.3-1.9-2.4-4.7-2.4-6.2 0-1.6 0.7-4.1 1.5-5.8 0.8-1.6 2.5-3.5 3.7-4.2 1.3-0.6 3.4-1.5 4.8-1.9 1.4-0.4 7.6-0.8 13.7-0.8zm377.8 368.1c-4.3 5.7-8.6 12.1-9.7 14.3-1.3 2.6-1.8 5.1-1.4 7 0.3 1.8 3.5 6.5 7.9 11.5 4.1 4.7 13.5 14.4 20.8 21.6 7.4 7.1 15 14.2 16.9 15.6 1.9 1.5 9.4 4.9 16.5 7.6 7.1 2.7 20.9 8.4 30.5 12.7 9.6 4.3 19.4 8.1 21.8 8.4 3 0.4 4.2 0.3 4.2-0.7 0-0.6-1.7-2.3-3.8-3.6-2-1.3-5.1-3.7-6.8-5.3-1.7-1.5-5.6-5.7-8.6-9.3-3-3.6-8.8-11-13-16.5-4.1-5.5-9.4-12.9-11.8-16.5-2.4-3.6-14.3-16.6-26.4-28.8-12.2-12.3-23.7-23.7-25.7-25.3l-3.7-2.9zm-227.5 159.5c-4.1 1.7-12.4 4.1-18.5 5.2-6 1.2-12 2.4-13.2 2.6-1.4 0.3-3.6 2.6-5.9 6.2-2 3.1-7.2 10.5-11.4 16.2-4.3 5.8-12.2 17.7-17.5 26.5-5.4 8.8-11.5 19.6-13.5 24-2.1 4.4-5.2 12.5-7 18-2.1 6.5-3 11-2.6 12.8 0.4 1.5 1.1 2.7 1.6 2.7 0.6 0 2.3-0.8 3.8-1.9 1.5-1 7.2-4 12.7-6.6 5.5-2.6 12.1-6.1 14.5-7.8 2.5-1.7 9-6.8 14.5-11.2 5.5-4.5 16.3-12.8 24-18.6 7.7-5.7 17.6-12.5 22-15 4.4-2.5 12.1-6.2 17-8.1 5-2 11.5-4.1 14.5-4.8 3.1-0.7 6.5-2.3 7.6-3.4 1.8-1.7 2.3-3.8 2.9-13.1 0.4-6 0.5-14.6 0.2-19-0.4-4.4-0.9-9-1.1-10.2-0.6-2.2-1-2.3-11.3-2.2-8.3 0-12.5 0.6-18.3 2.3-4.1 1.3-10.8 3.7-15 5.4z"/>
</svg>